<?xml version="1.0" encoding="UTF-8" standalone="no"?>
<!DOCTYPE svg PUBLIC "-//W3C//DTD SVG 1.1//EN"
 "http://www.w3.org/Graphics/SVG/1.1/DTD/svg11.dtd">
<!-- Generated by graphviz version 2.38.0 (20140413.2041)
 -->
<!-- Title: example Pages: 1 -->
<svg width="402pt" height="530pt"
 viewBox="0.00 0.00 402.00 530.00" xmlns="http://www.w3.org/2000/svg" xmlns:xlink="http://www.w3.org/1999/xlink">
<g id="graph0" class="graph" transform="scale(1 1) rotate(0) translate(36 494)">
<title>example</title>
<polygon fill="white" stroke="none" points="-36,36 -36,-494 366,-494 366,36 -36,36"/>
<!-- Person -->
<g id="node1" class="node"><title>Person</title>
<polygon fill="none" stroke="black" stroke-dasharray="5,2" points="122.5,-458 75.5,-458 75.5,-443 122.5,-443 122.5,-458"/>
<text text-anchor="middle" x="99" y="-447.4" font-family="Consolas" font-size="12.00">Person</text>
</g>
<!-- Person__Attends__School -->
<g id="node7" class="node"><title>Person__Attends__School</title>
<polygon fill="lightgrey" stroke="black" points="61,-394 13,-381 61,-368 109,-381 61,-394"/>
<text text-anchor="middle" x="61" y="-377.9" font-family="Consolas" font-size="12.00">Attends</text>
</g>
<!-- Person&#45;&#45;Person__Attends__School -->
<g id="edge1" class="edge"><title>Person&#45;&#45;Person__Attends__School</title>
<path fill="none" stroke="black" d="M95.2175,-442.781C88.6095,-431.043 74.9144,-406.716 67.0002,-392.658"/>
<text text-anchor="middle" x="95.5" y="-415.4" font-family="Consolas" font-size="12.00"> 1 </text>
</g>
<!-- Person__union__Student_Teacher -->
<g id="node13" class="node"><title>Person__union__Student_Teacher</title>
<polygon fill="none" stroke="black" stroke-dasharray="5,2" points="152,-393.5 141,-374.75 163,-374.75 152,-393.5"/>
</g>
<!-- Person&#45;&#45;Person__union__Student_Teacher -->
<g id="edge13" class="edge"><title>Person&#45;&#45;Person__union__Student_Teacher:n</title>
<path fill="none" stroke="black" stroke-dasharray="5,2" d="M112.374,-442.897C128.075,-434.092 152,-416.916 152,-394"/>
</g>
<!-- School -->
<g id="node2" class="node"><title>School</title>
<polygon fill="lightgrey" stroke="black" points="74.5,-319 27.5,-319 27.5,-304 74.5,-304 74.5,-319"/>
<text text-anchor="middle" x="51" y="-308.4" font-family="Consolas" font-size="12.00">School</text>
</g>
<!-- School__Offers__Major -->
<g id="node8" class="node"><title>School__Offers__Major</title>
<polygon fill="lightgrey" stroke="black" points="41,-211 7.10543e-015,-198 41,-185 82,-198 41,-211"/>
<text text-anchor="middle" x="41" y="-194.9" font-family="Consolas" font-size="12.00">Offers</text>
</g>
<!-- School&#45;&#45;School__Offers__Major -->
<g id="edge3" class="edge"><title>School&#45;&#45;School__Offers__Major</title>
<path fill="none" stroke="black" d="M50.4044,-303.859C48.7646,-285.575 44.1663,-234.305 42.0681,-210.909"/>
<text text-anchor="middle" x="59.5" y="-276.4" font-family="Consolas" font-size="12.00"> * </text>
</g>
<!-- Student -->
<g id="node3" class="node"><title>Student</title>
<polygon fill="lightgrey" stroke="black" points="179,-319 125,-319 125,-304 179,-304 179,-319"/>
<text text-anchor="middle" x="152" y="-308.4" font-family="Consolas" font-size="12.00">Student</text>
</g>
<!-- Student__Studies__Major -->
<g id="node9" class="node"><title>Student__Studies__Major</title>
<polygon fill="lightgrey" stroke="black" points="113,-134 65,-121 113,-108 161,-121 113,-134"/>
<text text-anchor="middle" x="113" y="-117.9" font-family="Consolas" font-size="12.00">Studies</text>
</g>
<!-- Student&#45;&#45;Student__Studies__Major -->
<g id="edge5" class="edge"><title>Student&#45;&#45;Student__Studies__Major</title>
<path fill="none" stroke="black" d="M146.346,-303.878C138.304,-293.998 123.886,-274.469 118,-255 104.96,-211.87 108.884,-157.277 111.495,-133.709"/>
<text text-anchor="middle" x="128.5" y="-238.9" font-family="Consolas" font-size="12.00"> 1 </text>
</g>
<!-- Student__Takes__Class -->
<g id="node10" class="node"><title>Student__Takes__Class</title>
<polygon fill="lightgrey" stroke="black" points="182,-255 148,-242 182,-229 216,-242 182,-255"/>
<text text-anchor="middle" x="182" y="-238.9" font-family="Consolas" font-size="12.00">Takes</text>
</g>
<!-- Student&#45;&#45;Student__Takes__Class -->
<g id="edge7" class="edge"><title>Student&#45;&#45;Student__Takes__Class</title>
<path fill="none" stroke="black" d="M154.986,-303.781C160.203,-292.043 171.015,-267.716 177.263,-253.658"/>
<text text-anchor="middle" x="178.5" y="-276.4" font-family="Consolas" font-size="12.00"> + </text>
</g>
<!-- Teacher -->
<g id="node4" class="node"><title>Teacher</title>
<polygon fill="lightgrey" stroke="black" points="287,-319 233,-319 233,-304 287,-304 287,-319"/>
<text text-anchor="middle" x="260" y="-308.4" font-family="Consolas" font-size="12.00">Teacher</text>
</g>
<!-- Teacher__Teaches__Class -->
<g id="node11" class="node"><title>Teacher__Teaches__Class</title>
<polygon fill="lightgrey" stroke="black" points="282,-255 234,-242 282,-229 330,-242 282,-255"/>
<text text-anchor="middle" x="282" y="-238.9" font-family="Consolas" font-size="12.00">Teaches</text>
</g>
<!-- Teacher&#45;&#45;Teacher__Teaches__Class -->
<g id="edge9" class="edge"><title>Teacher&#45;&#45;Teacher__Teaches__Class</title>
<path fill="none" stroke="black" d="M262.19,-303.781C265.972,-292.177 273.765,-268.268 278.369,-254.142"/>
<text text-anchor="middle" x="281.5" y="-276.4" font-family="Consolas" font-size="12.00"> * </text>
</g>
<!-- Major -->
<g id="node5" class="node"><title>Major</title>
<polygon fill="lightgrey" stroke="black" points="113,-15 73,-15 73,-0 113,-0 113,-15"/>
<text text-anchor="middle" x="93" y="-4.4" font-family="Consolas" font-size="12.00">Major</text>
</g>
<!-- Class -->
<g id="node6" class="node"><title>Class</title>
<polygon fill="lightgrey" stroke="black" points="207,-167 167,-167 167,-152 207,-152 207,-167"/>
<text text-anchor="middle" x="187" y="-156.4" font-family="Consolas" font-size="12.00">Class</text>
</g>
<!-- Class__Requires__Major -->
<g id="node12" class="node"><title>Class__Requires__Major</title>
<polygon fill="lightgrey" stroke="black" points="187,-90 132,-77 187,-64 242,-77 187,-90"/>
<text text-anchor="middle" x="187" y="-73.9" font-family="Consolas" font-size="12.00">Requires</text>
</g>
<!-- Class&#45;&#45;Class__Requires__Major -->
<g id="edge11" class="edge"><title>Class&#45;&#45;Class__Requires__Major</title>
<path fill="none" stroke="black" d="M187,-151.912C187,-138.394 187,-107.345 187,-90.1007"/>
<text text-anchor="middle" x="197.5" y="-117.9" font-family="Consolas" font-size="12.00"> ? </text>
</g>
<!-- Person__Attends__School&#45;&#45;School -->
<g id="edge2" class="edge"><title>Person__Attends__School&#45;&#45;School</title>
<path fill="none" stroke="black" d="M59.2581,-368.242C57.1541,-354.04 53.6867,-330.635 51.9931,-319.203"/>
<text text-anchor="middle" x="67.5" y="-340.4" font-family="Consolas" font-size="12.00"> * </text>
</g>
<!-- School__Offers__Major&#45;&#45;Major -->
<g id="edge4" class="edge"><title>School__Offers__Major&#45;&#45;Major</title>
<path fill="none" stroke="black" d="M37.943,-185.81C33.7825,-168.714 27.6484,-135.21 35,-108 45.4305,-69.3945 74.9637,-30.3801 87.3854,-15.1586"/>
<text text-anchor="middle" x="45.5" y="-117.9" font-family="Consolas" font-size="12.00"> * </text>
</g>
<!-- Student__Studies__Major&#45;&#45;Major -->
<g id="edge6" class="edge"><title>Student__Studies__Major&#45;&#45;Major</title>
<path fill="none" stroke="black" d="M108.274,-109.082C106.034,-103.477 103.522,-96.4805 102,-90 95.6197,-62.8381 93.7336,-29.494 93.2,-15.3561"/>
<text text-anchor="middle" x="112.5" y="-73.9" font-family="Consolas" font-size="12.00"> * </text>
</g>
<!-- Student__Takes__Class&#45;&#45;Class -->
<g id="edge8" class="edge"><title>Student__Takes__Class&#45;&#45;Class</title>
<path fill="none" stroke="black" d="M182.738,-229.122C183.803,-211.978 185.735,-180.861 186.583,-167.216"/>
<text text-anchor="middle" x="196.5" y="-194.9" font-family="Consolas" font-size="12.00"> * </text>
</g>
<!-- Teacher__Teaches__Class&#45;&#45;Class -->
<g id="edge10" class="edge"><title>Teacher__Teaches__Class&#45;&#45;Class</title>
<path fill="none" stroke="black" d="M271.102,-231.766C251.705,-215.329 211.644,-181.383 194.767,-167.081"/>
<text text-anchor="middle" x="255.5" y="-194.9" font-family="Consolas" font-size="12.00"> 1 </text>
</g>
<!-- Class__Requires__Major&#45;&#45;Major -->
<g id="edge12" class="edge"><title>Class__Requires__Major&#45;&#45;Major</title>
<path fill="none" stroke="black" d="M174.323,-66.8966C155.079,-53.0782 118.957,-27.1393 102.099,-15.0335"/>
<text text-anchor="middle" x="153.5" y="-36.4" font-family="Consolas" font-size="12.00"> * </text>
</g>
<!-- Person__union__Student_Teacher&#45;&#45;Student -->
<g id="edge14" class="edge"><title>Person__union__Student_Teacher&#45;&#45;Student</title>
<path fill="none" stroke="black" stroke-dasharray="5,2" d="M152,-374.703C152,-362.52 152,-332.53 152,-319.141"/>
</g>
<!-- Person__union__Student_Teacher&#45;&#45;Teacher -->
<g id="edge15" class="edge"><title>Person__union__Student_Teacher&#45;&#45;Teacher</title>
<path fill="none" stroke="black" stroke-dasharray="5,2" d="M160.475,-374.703C179.967,-362.52 227.952,-332.53 249.374,-319.141"/>
</g>
</g>
</svg>
